<?xml version="1.0" encoding="UTF-8" standalone="no"?>
<!DOCTYPE svg PUBLIC "-//W3C//DTD SVG 1.1//EN" "http://www.w3.org/Graphics/SVG/1.1/DTD/svg11.dtd">
<svg width="100%" height="100%" viewBox="0 0 1800 550" version="1.1" xmlns="http://www.w3.org/2000/svg" xmlns:xlink="http://www.w3.org/1999/xlink" xml:space="preserve" xmlns:serif="http://www.serif.com/" style="fill-rule:evenodd;clip-rule:evenodd;stroke-linejoin:round;stroke-miterlimit:1.41421;">
    <g transform="matrix(1,0,0,1,0,-653.42)">
        <g id="blender_logo_socket" transform="matrix(0.968745,0,0,1.01331,-76.2576,-13.1722)">
            <rect x="78.718" y="657.836" width="1858.07" height="542.775" style="fill:none;"/>
            <g transform="matrix(3.51903,0,0,3.36426,-31.9422,1625.67)">
                <g transform="matrix(2.66418,0,0,2.66418,-519.788,688.754)">
                    <path d="M387.513,-348.729C387.513,-348.729 270.177,-348.729 266.868,-348.729C266.794,-348.786 266.727,-348.855 266.656,-348.91C266.638,-348.927 248.907,-362.548 248.374,-362.96C248.343,-362.983 248.313,-363.006 248.313,-363.006C245.472,-365.181 241.252,-365.227 238.261,-363.131C236.39,-361.822 235.266,-359.842 235.182,-357.7C235.18,-357.615 235.175,-357.529 235.175,-357.442C235.175,-356.331 235.47,-355.258 236.003,-354.294C230.513,-354.289 224.991,-354.283 224.991,-354.283C220.873,-354.28 217.149,-351.502 216.299,-347.821C216.178,-347.293 216.117,-346.761 216.117,-346.233C216.117,-344.693 216.629,-343.2 217.598,-341.974C218.689,-340.603 220.263,-339.68 222.059,-339.32C216.872,-335.337 211.689,-331.36 211.684,-331.355C211.647,-331.328 211.617,-331.303 211.591,-331.286C209.511,-329.688 208.141,-327.374 207.831,-324.938C207.785,-324.581 207.763,-324.227 207.763,-323.876C207.763,-322.122 208.323,-320.454 209.385,-319.091C210.678,-317.437 212.586,-316.387 214.759,-316.14C217.249,-315.852 219.869,-316.65 221.942,-318.326C221.955,-318.336 224.522,-320.441 227.229,-322.655C228.222,-320.258 229.615,-318.036 231.415,-316.049C233.731,-313.49 236.546,-311.468 239.777,-310.038C243.173,-308.533 246.812,-307.773 250.594,-307.782C254.379,-307.789 258.016,-308.558 261.407,-310.072C264.645,-311.521 267.454,-313.55 269.761,-316.105C270.1,-316.483 270.412,-316.881 270.724,-317.281C275.304,-317.281 387.513,-317.281 387.513,-317.281C396.739,-317.281 404.236,-324.334 404.236,-333.003C404.236,-341.674 396.739,-348.729 387.513,-348.729Z" style="fill:white;fill-rule:nonzero;"/>
                </g>
                <g transform="matrix(2.66418,0,0,2.66418,-519.788,688.754)">
                    <path d="M243.13,-333.715C243.236,-335.606 244.162,-337.272 245.559,-338.453C246.929,-339.613 248.773,-340.322 250.785,-340.322C252.795,-340.322 254.639,-339.613 256.01,-338.453C257.406,-337.272 258.332,-335.606 258.439,-333.717C258.545,-331.774 257.764,-329.969 256.394,-328.631C254.997,-327.27 253.01,-326.416 250.785,-326.416C248.56,-326.416 246.569,-327.27 245.173,-328.631C243.802,-329.969 243.023,-331.774 243.13,-333.715Z" style="fill:rgb(38,87,135);fill-rule:nonzero;"/>
                </g>
                <g transform="matrix(2.66418,0,0,2.66418,-519.788,688.754)">
                    <path d="M230.94,-329.894C230.953,-329.154 231.189,-327.716 231.543,-326.593C232.287,-324.216 233.549,-322.017 235.305,-320.079C237.107,-318.087 239.326,-316.487 241.889,-315.351C244.583,-314.158 247.502,-313.55 250.534,-313.555C253.561,-313.559 256.48,-314.179 259.174,-315.381C261.737,-316.528 263.954,-318.135 265.753,-320.128C267.508,-322.074 268.768,-324.277 269.514,-326.654C269.889,-327.855 270.126,-329.074 270.221,-330.297C270.314,-331.502 270.275,-332.709 270.104,-333.915C269.77,-336.265 268.957,-338.47 267.705,-340.48C266.56,-342.327 265.084,-343.944 263.329,-345.305L263.333,-345.308L245.622,-358.907C245.606,-358.919 245.593,-358.932 245.576,-358.943C244.414,-359.835 242.46,-359.832 241.182,-358.938C239.89,-358.034 239.742,-356.539 240.892,-355.596L240.887,-355.591L248.274,-349.584L225.759,-349.56C225.748,-349.56 225.737,-349.56 225.729,-349.56C223.868,-349.558 222.079,-348.337 221.725,-346.794C221.361,-345.222 222.625,-343.918 224.56,-343.911L224.557,-343.904L235.969,-343.926L215.605,-328.295C215.579,-328.276 215.551,-328.256 215.527,-328.237C213.606,-326.766 212.985,-324.32 214.195,-322.772C215.423,-321.198 218.034,-321.195 219.975,-322.763L231.089,-331.859C231.089,-331.859 230.927,-330.631 230.94,-329.894ZM259.499,-325.782C257.209,-323.449 254.003,-322.126 250.534,-322.119C247.06,-322.113 243.854,-323.424 241.564,-325.753C240.445,-326.888 239.623,-328.194 239.116,-329.585C238.619,-330.952 238.426,-332.403 238.554,-333.867C238.675,-335.298 239.101,-336.663 239.781,-337.898C240.449,-339.112 241.369,-340.209 242.505,-341.137C244.731,-342.951 247.565,-343.933 250.529,-343.937C253.496,-343.941 256.328,-342.968 258.556,-341.16C259.69,-340.236 260.609,-339.143 261.277,-337.931C261.96,-336.697 262.383,-335.337 262.509,-333.902C262.635,-332.44 262.442,-330.991 261.945,-329.623C261.437,-328.228 260.618,-326.922 259.499,-325.782Z" style="fill:rgb(232,125,13);fill-rule:nonzero;"/>
                </g>
                <g transform="matrix(2.66418,0,0,2.66418,-519.788,688.754)">
                    <path d="M364.467,-333.746C364.638,-335.654 366.113,-336.864 368.366,-336.864C370.622,-336.864 372.096,-335.654 372.267,-333.746L364.467,-333.746ZM372.036,-329.035C371.459,-327.621 370.099,-326.784 368.252,-326.784C365.939,-326.784 364.382,-328.228 364.319,-330.509L377.616,-330.509C377.616,-330.746 377.616,-330.944 377.616,-331.18C377.616,-336.894 374.262,-340.105 368.252,-340.105C362.416,-340.105 358.887,-336.864 358.887,-331.781C358.887,-326.667 362.471,-323.431 368.252,-323.431C371.721,-323.431 374.411,-324.62 376.069,-326.71L372.036,-329.035Z" style="fill:rgb(38,87,135);fill-rule:nonzero;"/>
                </g>
                <g transform="matrix(2.66418,0,0,2.66418,-519.788,688.754)">
                    <path d="M305.468,-333.737C305.644,-335.645 307.119,-336.855 309.374,-336.855C311.626,-336.855 313.1,-335.645 313.273,-333.737L305.468,-333.737ZM313.042,-329.026C312.464,-327.608 311.105,-326.771 309.254,-326.771C306.945,-326.771 305.384,-328.219 305.323,-330.501L318.617,-330.501C318.617,-330.735 318.617,-330.932 318.617,-331.168C318.617,-336.885 315.264,-340.097 309.254,-340.097C303.415,-340.097 299.893,-336.855 299.893,-331.772C299.893,-326.658 303.475,-323.422 309.254,-323.422C312.722,-323.422 315.414,-324.607 317.075,-326.7L313.042,-329.026Z" style="fill:rgb(38,87,135);fill-rule:nonzero;"/>
                </g>
                <g transform="matrix(2.66418,0,0,2.66418,-519.788,688.754)">
                    <rect x="293.907" y="-343.56" width="4.795" height="19.617" style="fill:rgb(38,87,135);fill-rule:nonzero;"/>
                </g>
                <g transform="matrix(2.66418,0,0,2.66418,-519.788,688.754)">
                    <path d="M319.81,-338.348L324.632,-338.348L324.632,-337.18C326.339,-339.002 328.389,-339.923 330.701,-339.923C333.364,-339.923 335.38,-339.002 336.421,-337.434C337.29,-336.139 337.347,-334.576 337.347,-332.522L337.347,-323.943L332.518,-323.943L332.518,-331.481C332.518,-334.609 331.889,-336.053 329.143,-336.053C326.368,-336.053 324.632,-334.4 324.632,-331.625L324.632,-323.943L319.81,-323.943L319.81,-338.348Z" style="fill:rgb(38,87,135);fill-rule:nonzero;"/>
                </g>
                <g transform="matrix(2.66418,0,0,2.66418,-519.788,688.754)">
                    <path d="M352.876,-331.538C352.876,-328.853 351.082,-327.092 348.306,-327.092C345.528,-327.092 343.734,-328.793 343.734,-331.507C343.734,-334.261 345.504,-335.961 348.306,-335.961C351.082,-335.961 352.876,-334.231 352.876,-331.538ZM352.876,-337.695C351.657,-339.002 349.893,-339.719 347.441,-339.719C342.151,-339.719 338.539,-336.457 338.539,-331.568C338.539,-326.775 342.126,-323.422 347.354,-323.422C349.751,-323.422 351.511,-324.028 352.876,-325.387L352.876,-323.943L357.701,-323.943L357.701,-344.804L352.876,-343.56L352.876,-337.695Z" style="fill:rgb(38,87,135);fill-rule:nonzero;"/>
                </g>
                <g transform="matrix(2.66418,0,0,2.66418,-519.788,688.754)">
                    <path d="M282.947,-335.961C285.751,-335.961 287.514,-334.261 287.514,-331.507C287.514,-328.793 285.723,-327.092 282.947,-327.092C280.173,-327.092 278.381,-328.853 278.381,-331.538C278.381,-334.231 280.173,-335.961 282.947,-335.961ZM278.381,-343.56L273.554,-344.804L273.554,-323.943L278.381,-323.943L278.381,-325.387C279.739,-324.028 281.502,-323.422 283.901,-323.422C289.132,-323.422 292.714,-326.775 292.714,-331.568C292.714,-336.457 289.101,-339.719 283.814,-339.719C281.357,-339.719 279.594,-339.002 278.381,-337.695L278.381,-343.56Z" style="fill:rgb(38,87,135);fill-rule:nonzero;"/>
                </g>
                <g transform="matrix(2.66418,0,0,2.66418,-519.788,688.754)">
                    <path d="M378.806,-323.943L378.806,-338.348L383.631,-338.348L383.631,-337.458C385.076,-339.198 386.605,-340.064 388.344,-340.064C388.689,-340.064 389.123,-340.008 389.7,-339.951L389.7,-335.844C389.235,-335.905 388.717,-335.905 388.167,-335.905C385.362,-335.905 383.631,-334.055 383.631,-330.909L383.631,-323.943L378.806,-323.943Z" style="fill:rgb(38,87,135);fill-rule:nonzero;"/>
                </g>
                <g transform="matrix(0.271988,0,0,0.271988,-77.5603,-428.659)">
                    <text x="2213.4px" y="784.854px" style="font-family:'OpenSans-Semibold', 'Open Sans', sans-serif;font-weight:600;font-size:50px;fill:rgb(38,87,135);">®</text>
                </g>
            </g>
        </g>
    </g>
</svg>
